<?xml version="1.0" standalone="no"?>
<!DOCTYPE svg PUBLIC "-//W3C//DTD SVG 20010904//EN"
 "http://www.w3.org/TR/2001/REC-SVG-20010904/DTD/svg10.dtd">
<svg version="1.0" xmlns="http://www.w3.org/2000/svg"
 width="225.000000pt" height="225.000000pt" viewBox="0 0 225.000000 225.000000"
 preserveAspectRatio="xMidYMid meet">
<metadata>
Created by potrace 1.11, written by Peter Selinger 2001-2013
</metadata>
<g transform="translate(0.000000,225.000000) scale(0.100000,-0.100000)"
fill="#000000" stroke="none">
<path d="M992 2130 c-157 -22 -338 -94 -458 -183 -56 -41 -62 -49 -79 -108
-29 -101 -32 -258 -7 -357 56 -222 192 -386 400 -484 46 -22 85 -38 87 -36 2
2 -12 35 -31 74 -80 166 -98 368 -49 539 68 234 231 414 454 501 l74 29 -54
12 c-73 17 -259 24 -337 13z"/>
<path d="M1410 2064 c-30 -8 -97 -35 -149 -60 -166 -82 -298 -237 -358 -419
-21 -66 -26 -101 -27 -195 0 -63 3 -132 7 -153 l8 -39 31 49 c79 125 187 220
323 283 114 54 200 73 325 72 175 -1 339 -58 469 -163 34 -27 61 -45 61 -39 0
20 -52 148 -86 208 -105 192 -270 346 -468 438 -41 19 -76 34 -78 33 -2 0 -28
-7 -58 -15z"/>
<path d="M348 1773 c-171 -212 -255 -473 -233 -723 8 -91 23 -115 114 -194
156 -132 389 -192 591 -152 103 21 247 88 310 145 l45 40 -63 1 c-139 0 -324
69 -444 164 -122 97 -217 245 -259 402 -24 89 -30 271 -11 338 6 22 10 41 8
43 -2 2 -28 -27 -58 -64z"/>
<path d="M1345 1208 c54 -114 69 -186 69 -323 0 -224 -80 -407 -243 -558 -82
-76 -244 -167 -296 -167 -9 0 -14 -4 -11 -9 11 -17 164 -36 276 -35 214 3 408
66 578 188 47 34 51 41 71 114 26 96 28 255 5 352 -33 141 -131 298 -242 385
-57 45 -202 125 -228 125 -9 0 -2 -22 21 -72z"/>
<path d="M1316 984 c-88 -133 -243 -249 -401 -301 -116 -38 -288 -44 -406 -14
-108 27 -207 75 -289 139 -36 28 -66 47 -68 43 -6 -17 58 -166 102 -241 97
-164 243 -301 413 -387 l93 -47 70 17 c250 60 457 265 521 515 19 76 25 257
10 311 -6 22 -9 19 -45 -35z"/>
</g>
</svg>
